<mxfile host="app.diagrams.net" modified="2020-12-26T13:05:15.434Z" agent="5.0 (Windows NT 10.0; Win64; x64) AppleWebKit/537.36 (KHTML, like Gecko) Chrome/87.0.4280.88 Safari/537.36" etag="y3d0uX3N75Bqe2d2iWSY" version="14.1.2" type="github">
  <diagram name="Page-1" id="e7e014a7-5840-1c2e-5031-d8a46d1fe8dd">
    <mxGraphModel dx="1422" dy="804" grid="1" gridSize="10" guides="1" tooltips="1" connect="1" arrows="1" fold="1" page="1" pageScale="1" pageWidth="1169" pageHeight="826" background="#ffffff" math="0" shadow="0">
      <root>
        <mxCell id="0" />
        <mxCell id="1" parent="0" />
        <mxCell id="tYLHyqTt-1DBQ8F93RRt-41" value="Khach_Hang" style="html=1;" vertex="1" parent="1">
          <mxGeometry x="60" y="280" width="110" height="40" as="geometry" />
        </mxCell>
        <mxCell id="tYLHyqTt-1DBQ8F93RRt-42" value="Nhân Viên" style="html=1;" vertex="1" parent="1">
          <mxGeometry x="830" y="280" width="110" height="40" as="geometry" />
        </mxCell>
        <mxCell id="tYLHyqTt-1DBQ8F93RRt-45" value="&lt;font&gt;&lt;span style=&quot;font-weight: bold ; font-size: 18px&quot;&gt;0&lt;/span&gt;&lt;br&gt;&lt;font style=&quot;font-size: 15px&quot;&gt;Hệ Thống Quản Lý Khách Sạn&lt;/font&gt;&lt;br&gt;&lt;/font&gt;" style="rounded=1;whiteSpace=wrap;html=1;align=center;" vertex="1" parent="1">
          <mxGeometry x="410" y="230" width="180" height="140" as="geometry" />
        </mxCell>
        <mxCell id="tYLHyqTt-1DBQ8F93RRt-46" value="" style="endArrow=classic;html=1;entryX=-0.011;entryY=0.086;entryDx=0;entryDy=0;entryPerimeter=0;exitX=1;exitY=0;exitDx=0;exitDy=0;" edge="1" parent="1" source="tYLHyqTt-1DBQ8F93RRt-41" target="tYLHyqTt-1DBQ8F93RRt-45">
          <mxGeometry width="50" height="50" relative="1" as="geometry">
            <mxPoint x="560" y="540" as="sourcePoint" />
            <mxPoint x="610" y="490" as="targetPoint" />
            <Array as="points">
              <mxPoint x="170" y="242" />
            </Array>
          </mxGeometry>
        </mxCell>
        <mxCell id="tYLHyqTt-1DBQ8F93RRt-47" value="Thông Tin Khách Hàng" style="text;html=1;align=center;verticalAlign=middle;resizable=0;points=[];autosize=1;" vertex="1" parent="1">
          <mxGeometry x="190" y="220" width="140" height="20" as="geometry" />
        </mxCell>
        <mxCell id="tYLHyqTt-1DBQ8F93RRt-48" value="" style="endArrow=classic;html=1;entryX=1;entryY=0.5;entryDx=0;entryDy=0;" edge="1" parent="1" target="tYLHyqTt-1DBQ8F93RRt-41">
          <mxGeometry width="50" height="50" relative="1" as="geometry">
            <mxPoint x="409" y="300" as="sourcePoint" />
            <mxPoint x="610" y="490" as="targetPoint" />
          </mxGeometry>
        </mxCell>
      </root>
    </mxGraphModel>
  </diagram>
</mxfile>
